<svg width="106" height="104" viewBox="0 0 106 104" fill="none" xmlns="http://www.w3.org/2000/svg">
<g filter="url(#filter0_d_102_83)">
<path d="M89 75.0001C89 75.1556 88.9855 75.311 88.9566 75.4663C88.9277 75.6216 88.8844 75.7766 88.8266 75.9313C88.7689 76.0861 88.6968 76.2403 88.6103 76.394C88.5239 76.5478 88.4232 76.701 88.3083 76.8535C88.1933 77.006 88.0642 77.1576 87.9211 77.3084C87.778 77.4592 87.6209 77.609 87.4498 77.7578C87.2788 77.9066 87.0941 78.0542 86.8956 78.2006C86.6971 78.347 86.4851 78.492 86.2597 78.6356C86.0342 78.7792 85.7955 78.9213 85.5436 79.0619C85.2917 79.2025 85.0269 79.3413 84.7492 79.4784C84.4715 79.6155 84.1811 79.7507 83.8782 79.8841C83.5753 80.0175 83.2602 80.1488 82.9329 80.278C82.6056 80.4073 82.2664 80.5344 81.9155 80.6592C81.5645 80.7842 81.2021 80.9067 80.8284 81.0268C80.4546 81.147 80.0699 81.2647 79.6742 81.3799C79.2785 81.4951 78.8724 81.6077 78.4558 81.7176C78.0392 81.8276 77.6126 81.9347 77.1761 82.0391C76.7396 82.1435 76.2936 82.2451 75.8382 82.3437C75.3827 82.4423 74.9184 82.538 74.4452 82.6306C73.9719 82.7232 73.4904 82.8127 73.0005 82.8991C72.5106 82.9855 72.013 83.0686 71.5077 83.1485C71.0024 83.2285 70.4899 83.3051 69.9703 83.3784C69.4507 83.4517 68.9246 83.5216 68.392 83.588C67.8594 83.6545 67.3209 83.7175 66.7766 83.777C66.2323 83.8365 65.6827 83.8924 65.128 83.9448C64.5733 83.9972 64.014 84.0459 63.4502 84.091C62.8865 84.1362 62.3188 84.1776 61.7473 84.2154C61.1758 84.2532 60.6011 84.2873 60.0232 84.3176C59.4454 84.348 58.8651 84.3745 58.2823 84.3973C57.6995 84.4201 57.1149 84.4392 56.5286 84.4544C55.9423 84.4696 55.3549 84.4811 54.7664 84.4887C54.1779 84.4963 53.5891 84.5001 53 84.5001C52.4108 84.5001 51.822 84.4963 51.2336 84.4887C50.6451 84.4811 50.0577 84.4696 49.4714 84.4544C48.8851 84.4392 48.3005 84.4201 47.7177 84.3973C47.1349 84.3745 46.5546 84.348 45.9767 84.3176C45.3989 84.2873 44.8242 84.2532 44.2527 84.2154C43.6812 84.1776 43.1135 84.1362 42.5497 84.091C41.986 84.0459 41.4267 83.9972 40.872 83.9448C40.3173 83.8924 39.7677 83.8365 39.2234 83.777C38.6791 83.7175 38.1406 83.6545 37.608 83.588C37.0754 83.5216 36.5493 83.4517 36.0297 83.3783C35.5101 83.3051 34.9976 83.2285 34.4923 83.1485C33.987 83.0686 33.4894 82.9855 32.9995 82.8991C32.5096 82.8127 32.0281 82.7232 31.5548 82.6306C31.0816 82.538 30.6173 82.4423 30.1618 82.3437C29.7064 82.2451 29.2604 82.1435 28.8239 82.0391C28.3874 81.9347 27.9608 81.8276 27.5442 81.7176C27.1276 81.6077 26.7214 81.4951 26.3258 81.3799C25.9301 81.2647 25.5454 81.147 25.1716 81.0268C24.7979 80.9067 24.4355 80.7842 24.0845 80.6592C23.7336 80.5344 23.3944 80.4073 23.0671 80.278C22.7398 80.1488 22.4247 80.0175 22.1218 79.8841C21.8189 79.7507 21.5286 79.6155 21.2508 79.4784C20.9731 79.3413 20.7083 79.2025 20.4564 79.0619C20.2045 78.9213 19.9658 78.7792 19.7403 78.6356C19.5149 78.492 19.3029 78.347 19.1044 78.2006C18.9059 78.0542 18.7212 77.9066 18.5502 77.7578C18.3791 77.609 18.222 77.4592 18.0789 77.3084C17.9357 77.1576 17.8067 77.006 17.6917 76.8535C17.5768 76.701 17.4761 76.5478 17.3896 76.394C17.3032 76.2403 17.2311 76.0861 17.1734 75.9313C17.1156 75.7766 17.0723 75.6216 17.0434 75.4663C17.0145 75.311 17 75.1556 17 75.0001C17 74.8446 17.0145 74.6893 17.0434 74.534C17.0723 74.3787 17.1156 74.2237 17.1734 74.069C17.2311 73.9142 17.3032 73.76 17.3896 73.6062C17.4761 73.4524 17.5768 73.2992 17.6917 73.1468C17.8067 72.9943 17.9357 72.8426 18.0789 72.6918C18.222 72.541 18.3791 72.3912 18.5502 72.2424C18.7212 72.0936 18.9059 71.9461 19.1044 71.7997C19.3029 71.6533 19.5149 71.5083 19.7403 71.3646C19.9658 71.221 20.2045 71.0789 20.4564 70.9384C20.7083 70.7978 20.9731 70.659 21.2508 70.5219C21.5286 70.3847 21.8189 70.2495 22.1218 70.1161C22.4247 69.9828 22.7398 69.8515 23.0671 69.7222C23.3944 69.5929 23.7336 69.4659 24.0845 69.341C24.4355 69.2161 24.7979 69.0936 25.1716 68.9734C25.5454 68.8532 25.9301 68.7355 26.3258 68.6203C26.7214 68.5051 27.1276 68.3925 27.5442 68.2826C27.9608 68.1727 28.3874 68.0655 28.8239 67.9611C29.2604 67.8567 29.7064 67.7552 30.1618 67.6565C30.6173 67.5579 31.0816 67.4623 31.5548 67.3697C32.0281 67.277 32.5096 67.1875 32.9995 67.1012C33.4894 67.0148 33.987 66.9316 34.4923 66.8517C34.9976 66.7718 35.5101 66.6952 36.0297 66.6219C36.5493 66.5486 37.0754 66.4787 37.608 66.4122C38.1406 66.3458 38.6791 66.2828 39.2234 66.2233C39.7677 66.1638 40.3173 66.1078 40.872 66.0555C41.4267 66.0031 41.986 65.9543 42.5497 65.9092C43.1135 65.8641 43.6812 65.8226 44.2527 65.7848C44.8242 65.747 45.3989 65.713 45.9767 65.6827C46.5546 65.6523 47.1349 65.6258 47.7177 65.6029C48.3005 65.5801 48.8851 65.5611 49.4714 65.5459C50.0577 65.5306 50.6451 65.5192 51.2336 65.5116C51.822 65.5039 52.4108 65.5001 53 65.5001C53.5891 65.5001 54.1779 65.5039 54.7664 65.5116C55.3549 65.5192 55.9423 65.5306 56.5286 65.5459C57.1149 65.5611 57.6995 65.5801 58.2823 65.6029C58.8651 65.6258 59.4454 65.6523 60.0232 65.6827C60.6011 65.713 61.1758 65.747 61.7473 65.7848C62.3188 65.8226 62.8864 65.8641 63.4502 65.9092C64.014 65.9543 64.5733 66.0031 65.128 66.0555C65.6827 66.1078 66.2323 66.1638 66.7766 66.2233C67.3209 66.2828 67.8594 66.3458 68.392 66.4122C68.9246 66.4787 69.4507 66.5486 69.9703 66.6219C70.4899 66.6952 71.0024 66.7718 71.5077 66.8517C72.013 66.9316 72.5106 67.0148 73.0005 67.1012C73.4904 67.1875 73.9719 67.277 74.4452 67.3697C74.9184 67.4623 75.3827 67.5579 75.8382 67.6565C76.2936 67.7552 76.7396 67.8567 77.1761 67.9611C77.6126 68.0655 78.0392 68.1727 78.4558 68.2826C78.8724 68.3925 79.2785 68.5051 79.6742 68.6203C80.0699 68.7355 80.4546 68.8532 80.8284 68.9734C81.2021 69.0936 81.5645 69.2161 81.9155 69.341C82.2664 69.4659 82.6056 69.5929 82.9329 69.7222C83.2602 69.8515 83.5753 69.9828 83.8782 70.1161C84.1811 70.2495 84.4715 70.3847 84.7492 70.5219C85.0269 70.659 85.2917 70.7978 85.5436 70.9384C85.7955 71.0789 86.0342 71.221 86.2597 71.3646C86.4852 71.5083 86.6971 71.6533 86.8956 71.7997C87.0941 71.9461 87.2788 72.0936 87.4499 72.2424C87.6209 72.3912 87.778 72.541 87.9211 72.6918C88.0642 72.8426 88.1933 72.9943 88.3083 73.1468C88.4232 73.2992 88.5239 73.4524 88.6103 73.6062C88.6968 73.76 88.7689 73.9142 88.8266 74.069C88.8844 74.2237 88.9277 74.3787 88.9566 74.534C88.9855 74.6893 89 74.8446 89 75.0001Z" fill="url(#paint0_linear_102_83)"/>
</g>
<g filter="url(#filter1_d_102_83)">
<path fill-rule="evenodd" clip-rule="evenodd" d="M78 40.5001C78 48.4546 71.6925 58.423 59.0775 70.4053C55.4674 73.8343 50.0869 73.4358 46.49 69.9929C34.1633 58.1941 28 48.3632 28 40.5001C28 26.7855 39.2854 15.5001 53 15.5001C66.7146 15.5001 78 26.7855 78 40.5001Z" fill="url(#paint1_linear_102_83)"/>
</g>
<path d="M63 40.5001C63 40.6638 62.996 40.8274 62.988 40.9908C62.9799 41.1543 62.9679 41.3175 62.9518 41.4803C62.9358 41.6432 62.9158 41.8056 62.8918 41.9674C62.8677 42.1293 62.8397 42.2905 62.8078 42.451C62.7759 42.6116 62.7401 42.7712 62.7003 42.9299C62.6606 43.0887 62.6169 43.2463 62.5694 43.4029C62.5219 43.5596 62.4705 43.715 62.4154 43.869C62.3603 44.0231 62.3014 44.1757 62.2388 44.3269C62.1761 44.4781 62.1098 44.6277 62.0399 44.7756C61.9699 44.9236 61.8963 45.0698 61.8192 45.2141C61.7421 45.3585 61.6614 45.5008 61.5773 45.6411C61.4932 45.7815 61.4056 45.9198 61.3147 46.0558C61.2238 46.1919 61.1296 46.3257 61.0321 46.4571C60.9346 46.5886 60.8339 46.7176 60.7301 46.844C60.6263 46.9706 60.5194 47.0945 60.4095 47.2157C60.2996 47.337 60.1868 47.4555 60.0711 47.5712C59.9554 47.6869 59.8369 47.7997 59.7156 47.9096C59.5943 48.0196 59.4704 48.1264 59.3439 48.2302C59.2174 48.334 59.0885 48.4347 58.957 48.5322C58.8255 48.6297 58.6918 48.7239 58.5557 48.8148C58.4196 48.9058 58.2814 48.9933 58.141 49.0774C58.0007 49.1616 57.8583 49.2422 57.714 49.3193C57.5697 49.3965 57.4235 49.47 57.2755 49.54C57.1276 49.61 56.978 49.6763 56.8268 49.7389C56.6756 49.8015 56.523 49.8604 56.3689 49.9155C56.2148 49.9707 56.0595 50.022 55.9028 50.0695C55.7462 50.1171 55.5885 50.1607 55.4298 50.2004C55.2711 50.2402 55.1114 50.2761 54.9509 50.3079C54.7904 50.3399 54.6292 50.3679 54.4673 50.3919C54.3054 50.4159 54.1431 50.4359 53.9802 50.4519C53.8173 50.468 53.6542 50.4801 53.4907 50.4881C53.3272 50.4961 53.1637 50.5001 53 50.5001C52.8363 50.5001 52.6728 50.4961 52.5093 50.4881C52.3459 50.4801 52.1827 50.468 52.0198 50.4519C51.857 50.4359 51.6946 50.4159 51.5327 50.3919C51.3708 50.3679 51.2096 50.3399 51.0491 50.3079C50.8886 50.2761 50.729 50.2402 50.5702 50.2004C50.4114 50.1607 50.2538 50.1171 50.0971 50.0695C49.9405 50.022 49.7852 49.9707 49.6311 49.9155C49.477 49.8604 49.3244 49.8015 49.1732 49.7389C49.022 49.6763 48.8724 49.61 48.7245 49.54C48.5765 49.47 48.4304 49.3965 48.286 49.3193C48.1417 49.2422 47.9993 49.1616 47.859 49.0774C47.7186 48.9933 47.5804 48.9058 47.4443 48.8148C47.3082 48.7239 47.1745 48.6297 47.043 48.5322C46.9116 48.4347 46.7826 48.334 46.6561 48.2302C46.5296 48.1264 46.4057 48.0196 46.2844 47.9096C46.1632 47.7997 46.0447 47.6869 45.9289 47.5712C45.8132 47.4555 45.7004 47.337 45.5905 47.2157C45.4806 47.0945 45.3737 46.9706 45.2699 46.844C45.1661 46.7176 45.0654 46.5886 44.9679 46.4571C44.8704 46.3257 44.7762 46.1919 44.6853 46.0558C44.5944 45.9198 44.5069 45.7815 44.4227 45.6411C44.3386 45.5008 44.2579 45.3585 44.1808 45.2141C44.1036 45.0698 44.0301 44.9236 43.9601 44.7756C43.8901 44.6277 43.8238 44.4781 43.7612 44.3269C43.6986 44.1757 43.6397 44.0231 43.5846 43.869C43.5294 43.715 43.4781 43.5596 43.4306 43.4029C43.3831 43.2463 43.3395 43.0887 43.2997 42.9299C43.2599 42.7712 43.2241 42.6116 43.1921 42.451C43.1602 42.2905 43.1322 42.1293 43.1082 41.9674C43.0842 41.8056 43.0642 41.6432 43.0482 41.4803C43.0321 41.3175 43.0201 41.1543 43.012 40.9908C43.004 40.8274 43 40.6638 43 40.5001C43 40.3365 43.004 40.1729 43.012 40.0094C43.0201 39.846 43.0321 39.6828 43.0482 39.52C43.0642 39.3571 43.0842 39.1947 43.1082 39.0328C43.1322 38.8709 43.1602 38.7097 43.1921 38.5492C43.2241 38.3887 43.2599 38.2291 43.2997 38.0703C43.3395 37.9116 43.3831 37.7539 43.4306 37.5973C43.4781 37.4407 43.5294 37.2853 43.5846 37.1312C43.6397 36.9771 43.6986 36.8245 43.7612 36.6733C43.8238 36.5221 43.8901 36.3725 43.9601 36.2246C44.0301 36.0766 44.1036 35.9305 44.1808 35.7862C44.2579 35.6418 44.3386 35.4995 44.4227 35.3591C44.5069 35.2187 44.5944 35.0805 44.6853 34.9444C44.7762 34.8083 44.8704 34.6746 44.9679 34.5431C45.0654 34.4117 45.1661 34.2827 45.2699 34.1562C45.3737 34.0297 45.4806 33.9058 45.5905 33.7845C45.7004 33.6633 45.8132 33.5448 45.9289 33.4291C46.0447 33.3133 46.1632 33.2005 46.2844 33.0906C46.4057 32.9807 46.5296 32.8738 46.6561 32.77C46.7826 32.6662 46.9116 32.5655 47.043 32.468C47.1745 32.3706 47.3082 32.2763 47.4443 32.1854C47.5804 32.0945 47.7186 32.007 47.859 31.9228C47.9993 31.8387 48.1417 31.7581 48.286 31.6809C48.4304 31.6038 48.5765 31.5302 48.7245 31.4602C48.8724 31.3903 49.022 31.324 49.1732 31.2613C49.3244 31.1987 49.477 31.1398 49.6311 31.0847C49.7852 31.0295 49.9405 30.9782 50.0971 30.9307C50.2538 30.8832 50.4114 30.8396 50.5702 30.7998C50.729 30.76 50.8886 30.7242 51.0491 30.6923C51.2096 30.6603 51.3708 30.6324 51.5327 30.6084C51.6946 30.5843 51.857 30.5643 52.0198 30.5483C52.1827 30.5322 52.3459 30.5202 52.5093 30.5122C52.6728 30.5041 52.8363 30.5001 53 30.5001C53.1637 30.5001 53.3272 30.5041 53.4907 30.5122C53.6542 30.5202 53.8173 30.5322 53.9802 30.5483C54.1431 30.5643 54.3054 30.5843 54.4673 30.6084C54.6292 30.6324 54.7904 30.6603 54.9509 30.6923C55.1114 30.7242 55.2711 30.76 55.4298 30.7998C55.5885 30.8396 55.7462 30.8832 55.9028 30.9307C56.0595 30.9782 56.2148 31.0295 56.3689 31.0847C56.523 31.1398 56.6756 31.1987 56.8268 31.2613C56.978 31.324 57.1276 31.3903 57.2755 31.4602C57.4235 31.5302 57.5697 31.6038 57.714 31.6809C57.8583 31.7581 58.0007 31.8387 58.141 31.9228C58.2814 32.007 58.4196 32.0945 58.5557 32.1854C58.6918 32.2763 58.8255 32.3706 58.957 32.468C59.0885 32.5655 59.2174 32.6662 59.3439 32.77C59.4704 32.8738 59.5943 32.9807 59.7156 33.0906C59.8369 33.2005 59.9554 33.3133 60.0711 33.4291C60.1868 33.5448 60.2996 33.6633 60.4095 33.7845C60.5194 33.9058 60.6263 34.0297 60.7301 34.1562C60.8339 34.2827 60.9346 34.4117 61.0321 34.5431C61.1296 34.6746 61.2238 34.8083 61.3147 34.9444C61.4056 35.0805 61.4932 35.2187 61.5773 35.3591C61.6614 35.4995 61.7421 35.6418 61.8192 35.7862C61.8963 35.9305 61.9699 36.0766 62.0399 36.2246C62.1098 36.3725 62.1761 36.5221 62.2388 36.6733C62.3014 36.8245 62.3603 36.9771 62.4154 37.1312C62.4705 37.2853 62.5219 37.4407 62.5694 37.5973C62.6169 37.7539 62.6606 37.9116 62.7003 38.0703C62.7401 38.2291 62.7759 38.3887 62.8078 38.5492C62.8397 38.7097 62.8677 38.8709 62.8918 39.0328C62.9158 39.1947 62.9358 39.3571 62.9518 39.52C62.9679 39.6828 62.9799 39.846 62.988 40.0094C62.996 40.1729 63 40.3365 63 40.5001Z" fill="white" fill-opacity="0.4"/>
<defs>
<filter id="filter0_d_102_83" x="0" y="50.5001" width="106" height="53" filterUnits="userSpaceOnUse" color-interpolation-filters="sRGB">
<feFlood flood-opacity="0" result="BackgroundImageFix"/>
<feColorMatrix in="SourceAlpha" type="matrix" values="0 0 0 0 0 0 0 0 0 0 0 0 0 0 0 0 0 0 127 0" result="hardAlpha"/>
<feMorphology radius="1" operator="dilate" in="SourceAlpha" result="effect1_dropShadow_102_83"/>
<feOffset dy="2"/>
<feGaussianBlur stdDeviation="8"/>
<feColorMatrix type="matrix" values="0 0 0 0 1 0 0 0 0 0.8635 0 0 0 0 0.5125 0 0 0 0.5 0"/>
<feBlend mode="normal" in2="BackgroundImageFix" result="effect1_dropShadow_102_83"/>
<feBlend mode="normal" in="SourceGraphic" in2="effect1_dropShadow_102_83" result="shape"/>
</filter>
<filter id="filter1_d_102_83" x="11" y="0.500122" width="84" height="91.2849" filterUnits="userSpaceOnUse" color-interpolation-filters="sRGB">
<feFlood flood-opacity="0" result="BackgroundImageFix"/>
<feColorMatrix in="SourceAlpha" type="matrix" values="0 0 0 0 0 0 0 0 0 0 0 0 0 0 0 0 0 0 127 0" result="hardAlpha"/>
<feMorphology radius="1" operator="dilate" in="SourceAlpha" result="effect1_dropShadow_102_83"/>
<feOffset dy="2"/>
<feGaussianBlur stdDeviation="8"/>
<feColorMatrix type="matrix" values="0 0 0 0 0.5125 0 0 0 0 1 0 0 0 0 0.649 0 0 0 0.5 0"/>
<feBlend mode="normal" in2="BackgroundImageFix" result="effect1_dropShadow_102_83"/>
<feBlend mode="normal" in="SourceGraphic" in2="effect1_dropShadow_102_83" result="shape"/>
</filter>
<linearGradient id="paint0_linear_102_83" x1="53" y1="65.5001" x2="53" y2="84.5001" gradientUnits="userSpaceOnUse">
<stop stop-color="#FFF38A"/>
<stop offset="1" stop-color="#FFCA42"/>
</linearGradient>
<linearGradient id="paint1_linear_102_83" x1="27.5257" y1="14.9567" x2="85.3616" y2="65.4376" gradientUnits="userSpaceOnUse">
<stop stop-color="#95F8C4"/>
<stop offset="1" stop-color="#61F098"/>
</linearGradient>
</defs>
</svg>
