<svg width="106" height="96" viewBox="0 0 106 96" fill="none" xmlns="http://www.w3.org/2000/svg">
<g filter="url(#filter0_d_102_47)">
<path d="M18.9263 81.0418V59.0418C18.9263 58.96 18.9283 58.8782 18.9323 58.7965C18.9363 58.7148 18.9423 58.6332 18.9503 58.5517C18.9584 58.4703 18.9684 58.3891 18.9804 58.3082C18.9924 58.2272 19.0064 58.1466 19.0223 58.0664C19.0383 57.9861 19.0562 57.9063 19.0761 57.8269C19.096 57.7476 19.1178 57.6687 19.1416 57.5904C19.1653 57.5121 19.191 57.4344 19.2185 57.3574C19.2461 57.2803 19.2756 57.204 19.3069 57.1284C19.3382 57.0528 19.3713 56.978 19.4063 56.9041C19.4413 56.8301 19.4781 56.757 19.5167 56.6849C19.5552 56.6127 19.5956 56.5415 19.6376 56.4713C19.6797 56.4011 19.7235 56.332 19.7689 56.264C19.8144 56.1959 19.8615 56.1291 19.9102 56.0633C19.959 55.9976 20.0093 55.9331 20.0612 55.8699C20.1131 55.8066 20.1666 55.7447 20.2215 55.684C20.2765 55.6234 20.3329 55.5642 20.3907 55.5063C20.4486 55.4484 20.5078 55.392 20.5685 55.3371C20.6291 55.2821 20.691 55.2287 20.7543 55.1768C20.8176 55.1249 20.882 55.0745 20.9478 55.0258C21.0135 54.9771 21.0804 54.93 21.1484 54.8845C21.2165 54.839 21.2856 54.7953 21.3558 54.7532C21.4259 54.7111 21.4971 54.6708 21.5693 54.6322C21.6415 54.5937 21.7145 54.5569 21.7885 54.5219C21.8625 54.4869 21.9372 54.4538 22.0128 54.4224C22.0884 54.3911 22.1648 54.3617 22.2418 54.3341C22.3189 54.3066 22.3965 54.2809 22.4748 54.2571C22.5531 54.2334 22.632 54.2116 22.7114 54.1917C22.7907 54.1718 22.8706 54.1539 22.9508 54.1379C23.0311 54.1219 23.1117 54.108 23.1926 54.096C23.2736 54.084 23.3547 54.0739 23.4362 54.0659C23.5176 54.0579 23.5992 54.0519 23.6809 54.0479C23.7627 54.0438 23.8444 54.0418 23.9263 54.0418H45.9263C46.0081 54.0418 46.0898 54.0438 46.1716 54.0479C46.2533 54.0519 46.3349 54.0579 46.4164 54.0659C46.4978 54.0739 46.579 54.084 46.66 54.096C46.7409 54.108 46.8215 54.1219 46.9018 54.1379C46.982 54.1539 47.0618 54.1718 47.1412 54.1917C47.2206 54.2116 47.2994 54.2334 47.3777 54.2571C47.456 54.2809 47.5337 54.3066 47.6107 54.3341C47.6877 54.3617 47.7641 54.3911 47.8397 54.4224C47.9153 54.4538 47.9901 54.4869 48.0641 54.5219C48.138 54.5569 48.2111 54.5937 48.2833 54.6322C48.3554 54.6708 48.4266 54.7111 48.4968 54.7532C48.567 54.7953 48.6361 54.839 48.7041 54.8845C48.7721 54.93 48.839 54.9771 48.9048 55.0258C48.9705 55.0745 49.035 55.1249 49.0983 55.1768C49.1615 55.2287 49.2234 55.2821 49.2841 55.3371C49.3447 55.392 49.4039 55.4484 49.4618 55.5063C49.5196 55.5642 49.5761 55.6234 49.6311 55.684C49.686 55.7447 49.7394 55.8066 49.7914 55.8699C49.8432 55.9331 49.8935 55.9976 49.9423 56.0633C49.9911 56.1291 50.0382 56.1959 50.0836 56.264C50.129 56.332 50.1728 56.4011 50.2149 56.4713C50.2569 56.5415 50.2973 56.6127 50.3359 56.6849C50.3745 56.757 50.4112 56.8301 50.4462 56.9041C50.4812 56.978 50.5143 57.0528 50.5457 57.1284C50.577 57.204 50.6064 57.2803 50.634 57.3574C50.6616 57.4344 50.6872 57.5121 50.711 57.5904C50.7347 57.6687 50.7565 57.7476 50.7765 57.8269C50.7963 57.9063 50.8142 57.9861 50.8302 58.0664C50.8462 58.1466 50.8602 58.2272 50.8722 58.3082C50.8842 58.3891 50.8942 58.4703 50.9022 58.5517C50.9102 58.6332 50.9163 58.7148 50.9203 58.7965C50.9243 58.8782 50.9263 58.96 50.9263 59.0418V81.0418C50.9263 81.1236 50.9243 81.2054 50.9203 81.2871C50.9163 81.3689 50.9102 81.4505 50.9022 81.5319C50.8942 81.6133 50.8842 81.6945 50.8722 81.7755C50.8602 81.8565 50.8462 81.9371 50.8302 82.0173C50.8142 82.0975 50.7963 82.1773 50.7765 82.2567C50.7565 82.3361 50.7347 82.415 50.711 82.4932C50.6872 82.5716 50.6616 82.6492 50.634 82.7262C50.6064 82.8033 50.577 82.8796 50.5457 82.9552C50.5143 83.0308 50.4812 83.1056 50.4462 83.1796C50.4112 83.2536 50.3745 83.3266 50.3359 83.3988C50.2973 83.471 50.2569 83.5421 50.2149 83.6123C50.1728 83.6825 50.129 83.7516 50.0836 83.8196C50.0382 83.8877 49.9911 83.9546 49.9423 84.0203C49.8935 84.0861 49.8432 84.1506 49.7914 84.2138C49.7394 84.277 49.686 84.339 49.6311 84.3996C49.5761 84.4602 49.5196 84.5195 49.4618 84.5773C49.4039 84.6352 49.3447 84.6916 49.2841 84.7466C49.2234 84.8016 49.1615 84.855 49.0983 84.9069C49.035 84.9588 48.9705 85.0091 48.9048 85.0578C48.839 85.1066 48.7721 85.1537 48.7041 85.1991C48.6361 85.2446 48.567 85.2884 48.4968 85.3304C48.4266 85.3725 48.3554 85.4128 48.2833 85.4514C48.2111 85.49 48.138 85.5268 48.0641 85.5617C47.9901 85.5967 47.9153 85.6299 47.8397 85.6612C47.7641 85.6926 47.6877 85.722 47.6107 85.7495C47.5337 85.7771 47.456 85.8028 47.3777 85.8265C47.2994 85.8503 47.2206 85.8721 47.1412 85.892C47.0618 85.9119 46.982 85.9298 46.9018 85.9457C46.8215 85.9617 46.7409 85.9757 46.66 85.9877C46.579 85.9997 46.4978 86.0097 46.4164 86.0177C46.3349 86.0258 46.2533 86.0318 46.1716 86.0358C46.0898 86.0398 46.0081 86.0418 45.9263 86.0418H23.9263C23.8444 86.0418 23.7627 86.0398 23.6809 86.0358C23.5992 86.0318 23.5176 86.0258 23.4362 86.0177C23.3547 86.0097 23.2736 85.9997 23.1926 85.9877C23.1117 85.9757 23.0311 85.9617 22.9508 85.9457C22.8706 85.9298 22.7907 85.9119 22.7114 85.892C22.632 85.8721 22.5531 85.8503 22.4748 85.8265C22.3965 85.8028 22.3189 85.7771 22.2418 85.7495C22.1648 85.722 22.0884 85.6926 22.0128 85.6612C21.9372 85.6299 21.8625 85.5967 21.7885 85.5617C21.7145 85.5268 21.6415 85.49 21.5693 85.4514C21.4971 85.4128 21.4259 85.3725 21.3558 85.3304C21.2856 85.2884 21.2165 85.2446 21.1484 85.1991C21.0804 85.1537 21.0135 85.1066 20.9478 85.0578C20.882 85.0091 20.8176 84.9588 20.7543 84.9069C20.691 84.855 20.6291 84.8016 20.5685 84.7466C20.5078 84.6916 20.4486 84.6352 20.3907 84.5773C20.3329 84.5195 20.2765 84.4602 20.2215 84.3996C20.1666 84.339 20.1131 84.277 20.0612 84.2138C20.0093 84.1506 19.959 84.0861 19.9102 84.0203C19.8615 83.9546 19.8144 83.8877 19.7689 83.8196C19.7235 83.7516 19.6797 83.6825 19.6376 83.6123C19.5956 83.5421 19.5552 83.471 19.5167 83.3988C19.4781 83.3266 19.4413 83.2536 19.4063 83.1796C19.3713 83.1056 19.3382 83.0308 19.3069 82.9552C19.2756 82.8796 19.2461 82.8033 19.2185 82.7262C19.191 82.6492 19.1653 82.5716 19.1416 82.4932C19.1178 82.415 19.096 82.3361 19.0761 82.2567C19.0562 82.1773 19.0383 82.0975 19.0223 82.0173C19.0064 81.9371 18.9924 81.8565 18.9804 81.7755C18.9684 81.6945 18.9584 81.6133 18.9503 81.5319C18.9423 81.4505 18.9363 81.3689 18.9323 81.2871C18.9283 81.2054 18.9263 81.1236 18.9263 81.0418Z" fill="url(#paint0_linear_102_47)"/>
</g>
<g filter="url(#filter1_d_102_47)">
<path d="M56.9263 43.0418V21.0418C56.9263 20.96 56.9283 20.8782 56.9323 20.7965C56.9363 20.7148 56.9423 20.6332 56.9503 20.5517C56.9584 20.4703 56.9684 20.3891 56.9804 20.3082C56.9924 20.2272 57.0064 20.1466 57.0223 20.0664C57.0383 19.9861 57.0562 19.9063 57.0761 19.8269C57.096 19.7476 57.1178 19.6687 57.1416 19.5904C57.1653 19.5121 57.191 19.4344 57.2185 19.3574C57.2461 19.2803 57.2756 19.204 57.3069 19.1284C57.3382 19.0528 57.3713 18.978 57.4063 18.9041C57.4413 18.8301 57.4781 18.757 57.5167 18.6849C57.5552 18.6127 57.5956 18.5415 57.6376 18.4713C57.6797 18.4011 57.7235 18.332 57.7689 18.264C57.8144 18.1959 57.8615 18.1291 57.9102 18.0633C57.959 17.9976 58.0093 17.9331 58.0612 17.8699C58.1131 17.8066 58.1666 17.7447 58.2215 17.684C58.2765 17.6234 58.3329 17.5642 58.3907 17.5063C58.4486 17.4484 58.5078 17.392 58.5685 17.3371C58.6291 17.2821 58.691 17.2287 58.7543 17.1768C58.8176 17.1249 58.882 17.0745 58.9478 17.0258C59.0135 16.9771 59.0804 16.93 59.1484 16.8845C59.2165 16.839 59.2856 16.7953 59.3558 16.7532C59.4259 16.7111 59.4971 16.6708 59.5693 16.6322C59.6415 16.5937 59.7145 16.5569 59.7885 16.5219C59.8625 16.4869 59.9372 16.4538 60.0128 16.4224C60.0884 16.3911 60.1648 16.3617 60.2418 16.3341C60.3189 16.3066 60.3965 16.2809 60.4748 16.2571C60.5531 16.2334 60.632 16.2116 60.7114 16.1917C60.7907 16.1718 60.8706 16.1539 60.9508 16.1379C61.0311 16.1219 61.1117 16.108 61.1926 16.096C61.2736 16.084 61.3547 16.0739 61.4362 16.0659C61.5176 16.0579 61.5992 16.0519 61.6809 16.0479C61.7627 16.0438 61.8444 16.0418 61.9263 16.0418H83.9263C84.0081 16.0418 84.0898 16.0438 84.1716 16.0479C84.2533 16.0519 84.3349 16.0579 84.4164 16.0659C84.4978 16.0739 84.579 16.084 84.66 16.096C84.7409 16.108 84.8215 16.1219 84.9018 16.1379C84.982 16.1539 85.0618 16.1718 85.1412 16.1917C85.2206 16.2116 85.2994 16.2334 85.3777 16.2571C85.456 16.2809 85.5337 16.3066 85.6107 16.3341C85.6877 16.3617 85.7641 16.3911 85.8397 16.4224C85.9153 16.4538 85.9901 16.4869 86.0641 16.5219C86.138 16.5569 86.2111 16.5937 86.2833 16.6322C86.3554 16.6708 86.4266 16.7111 86.4968 16.7532C86.567 16.7953 86.6361 16.839 86.7041 16.8845C86.7721 16.93 86.839 16.9771 86.9048 17.0258C86.9705 17.0745 87.035 17.1249 87.0983 17.1768C87.1615 17.2287 87.2234 17.2821 87.2841 17.3371C87.3447 17.392 87.4039 17.4484 87.4618 17.5063C87.5196 17.5642 87.5761 17.6234 87.6311 17.684C87.686 17.7447 87.7394 17.8066 87.7914 17.8699C87.8432 17.9331 87.8935 17.9976 87.9423 18.0633C87.9911 18.1291 88.0382 18.1959 88.0836 18.264C88.129 18.332 88.1728 18.4011 88.2149 18.4713C88.2569 18.5415 88.2973 18.6127 88.3359 18.6849C88.3745 18.757 88.4112 18.8301 88.4462 18.9041C88.4812 18.978 88.5143 19.0528 88.5457 19.1284C88.577 19.204 88.6064 19.2803 88.634 19.3574C88.6616 19.4344 88.6872 19.5121 88.711 19.5904C88.7347 19.6687 88.7565 19.7476 88.7765 19.8269C88.7963 19.9063 88.8142 19.9861 88.8302 20.0664C88.8462 20.1466 88.8602 20.2272 88.8722 20.3082C88.8842 20.3891 88.8942 20.4703 88.9022 20.5517C88.9102 20.6332 88.9163 20.7148 88.9203 20.7965C88.9243 20.8782 88.9263 20.96 88.9263 21.0418V43.0418C88.9263 43.1236 88.9243 43.2054 88.9203 43.2871C88.9163 43.3689 88.9102 43.4505 88.9022 43.5319C88.8942 43.6133 88.8842 43.6945 88.8722 43.7755C88.8602 43.8565 88.8462 43.9371 88.8302 44.0173C88.8142 44.0975 88.7963 44.1773 88.7765 44.2567C88.7565 44.3361 88.7347 44.415 88.711 44.4932C88.6872 44.5716 88.6616 44.6492 88.634 44.7262C88.6064 44.8033 88.577 44.8796 88.5457 44.9552C88.5143 45.0308 88.4812 45.1056 88.4462 45.1796C88.4112 45.2536 88.3745 45.3266 88.3359 45.3988C88.2973 45.471 88.2569 45.5421 88.2149 45.6123C88.1728 45.6825 88.129 45.7516 88.0836 45.8196C88.0382 45.8877 87.9911 45.9546 87.9423 46.0203C87.8935 46.0861 87.8432 46.1506 87.7914 46.2138C87.7394 46.277 87.686 46.339 87.6311 46.3996C87.5761 46.4602 87.5196 46.5195 87.4618 46.5773C87.4039 46.6352 87.3447 46.6916 87.2841 46.7466C87.2234 46.8016 87.1615 46.855 87.0983 46.9069C87.035 46.9588 86.9705 47.0091 86.9048 47.0578C86.839 47.1066 86.7721 47.1537 86.7041 47.1991C86.6361 47.2446 86.567 47.2884 86.4968 47.3304C86.4266 47.3725 86.3554 47.4128 86.2833 47.4514C86.2111 47.49 86.138 47.5268 86.0641 47.5617C85.9901 47.5967 85.9153 47.6299 85.8397 47.6612C85.7641 47.6926 85.6877 47.722 85.6107 47.7495C85.5337 47.7771 85.456 47.8028 85.3777 47.8265C85.2994 47.8503 85.2206 47.8721 85.1412 47.892C85.0618 47.9119 84.982 47.9298 84.9018 47.9457C84.8215 47.9617 84.7409 47.9757 84.66 47.9877C84.579 47.9997 84.4978 48.0097 84.4164 48.0177C84.3349 48.0258 84.2533 48.0318 84.1716 48.0358C84.0898 48.0398 84.0081 48.0418 83.9263 48.0418H61.9263C61.8444 48.0418 61.7627 48.0398 61.6809 48.0358C61.5992 48.0318 61.5176 48.0258 61.4362 48.0177C61.3547 48.0097 61.2736 47.9997 61.1926 47.9877C61.1117 47.9757 61.0311 47.9617 60.9508 47.9457C60.8706 47.9298 60.7907 47.9119 60.7114 47.892C60.632 47.8721 60.5531 47.8503 60.4748 47.8265C60.3965 47.8028 60.3189 47.7771 60.2418 47.7495C60.1648 47.722 60.0884 47.6926 60.0128 47.6612C59.9372 47.6299 59.8625 47.5967 59.7885 47.5617C59.7145 47.5268 59.6415 47.49 59.5693 47.4514C59.4971 47.4128 59.4259 47.3725 59.3558 47.3304C59.2856 47.2884 59.2165 47.2446 59.1484 47.1991C59.0804 47.1537 59.0135 47.1066 58.9478 47.0578C58.882 47.0091 58.8176 46.9588 58.7543 46.9069C58.691 46.855 58.6291 46.8016 58.5685 46.7466C58.5078 46.6916 58.4486 46.6352 58.3907 46.5773C58.3329 46.5195 58.2765 46.4602 58.2215 46.3996C58.1666 46.339 58.1131 46.277 58.0612 46.2138C58.0093 46.1506 57.959 46.0861 57.9102 46.0203C57.8615 45.9546 57.8144 45.8877 57.7689 45.8196C57.7235 45.7516 57.6797 45.6825 57.6376 45.6123C57.5956 45.5421 57.5552 45.471 57.5167 45.3988C57.4781 45.3266 57.4413 45.2536 57.4063 45.1796C57.3713 45.1056 57.3382 45.0308 57.3069 44.9552C57.2756 44.8796 57.2461 44.8033 57.2185 44.7262C57.191 44.6492 57.1653 44.5716 57.1416 44.4932C57.1178 44.415 57.096 44.3361 57.0761 44.2567C57.0562 44.1773 57.0383 44.0975 57.0223 44.0173C57.0064 43.9371 56.9924 43.8565 56.9804 43.7755C56.9684 43.6945 56.9584 43.6133 56.9503 43.5319C56.9423 43.4505 56.9363 43.3689 56.9323 43.2871C56.9283 43.2054 56.9263 43.1236 56.9263 43.0418Z" fill="url(#paint1_linear_102_47)"/>
</g>
<g filter="url(#filter2_d_102_47)">
<path d="M56.9263 70.0418C56.9263 69.78 56.9327 69.5183 56.9455 69.2567C56.9584 68.9952 56.9776 68.7341 57.0033 68.4735C57.029 68.2129 57.061 67.9531 57.0994 67.6941C57.1379 67.4351 57.1826 67.1772 57.2337 66.9204C57.2848 66.6636 57.3421 66.4081 57.4058 66.1541C57.4694 65.9001 57.5392 65.6478 57.6152 65.3972C57.6912 65.1467 57.7733 64.8982 57.8616 64.6516C57.9498 64.405 58.044 64.1608 58.1442 63.9189C58.2444 63.677 58.3505 63.4377 58.4624 63.201C58.5744 62.9642 58.6921 62.7304 58.8155 62.4995C58.939 62.2686 59.068 62.0408 59.2026 61.8162C59.3372 61.5916 59.4773 61.3704 59.6228 61.1527C59.7682 60.935 59.919 60.721 60.0749 60.5106C60.2309 60.3003 60.392 60.094 60.5581 59.8915C60.7242 59.6891 60.8952 59.4909 61.071 59.2969C61.2469 59.1029 61.4274 58.9133 61.6126 58.7281C61.7977 58.543 61.9873 58.3625 62.1813 58.1866C62.3753 58.0108 62.5736 57.8398 62.776 57.6737C62.9784 57.5076 63.1848 57.3465 63.3951 57.1905C63.6054 57.0345 63.8194 56.8838 64.0371 56.7383C64.2549 56.5928 64.476 56.4528 64.7006 56.3182C64.9252 56.1836 65.153 56.0545 65.3839 55.9311C65.6149 55.8077 65.8487 55.69 66.0854 55.578C66.3221 55.4661 66.5614 55.36 66.8033 55.2598C67.0452 55.1596 67.2895 55.0654 67.5361 54.9771C67.7826 54.8889 68.0311 54.8068 68.2817 54.7308C68.5323 54.6548 68.7846 54.585 69.0386 54.5213C69.2926 54.4577 69.548 54.4004 69.8049 54.3493C70.0617 54.2982 70.3196 54.2534 70.5786 54.215C70.8376 54.1766 71.0974 54.1445 71.358 54.1189C71.6186 54.0932 71.8796 54.074 72.1412 54.0611C72.4027 54.0483 72.6644 54.0418 72.9263 54.0418C73.1881 54.0418 73.4498 54.0483 73.7114 54.0611C73.9729 54.074 74.234 54.0932 74.4946 54.1189C74.7552 54.1445 75.015 54.1766 75.274 54.215C75.533 54.2534 75.7909 54.2982 76.0477 54.3493C76.3045 54.4004 76.56 54.4577 76.814 54.5213C77.068 54.585 77.3203 54.6548 77.5709 54.7308C77.8214 54.8068 78.0699 54.8889 78.3165 54.9771C78.5631 55.0654 78.8073 55.1596 79.0492 55.2598C79.2911 55.36 79.5304 55.4661 79.7672 55.578C80.0038 55.69 80.2376 55.8077 80.4686 55.9311C80.6995 56.0545 80.9273 56.1836 81.1519 56.3182C81.3765 56.4528 81.5976 56.5928 81.8154 56.7383C82.0331 56.8838 82.2471 57.0345 82.4575 57.1905C82.6678 57.3465 82.8742 57.5076 83.0766 57.6737C83.279 57.8398 83.4772 58.0108 83.6712 58.1866C83.8652 58.3625 84.0548 58.543 84.24 58.7281C84.4251 58.9133 84.6056 59.1029 84.7815 59.2969C84.9573 59.4909 85.1283 59.6891 85.2945 59.8915C85.4605 60.094 85.6216 60.3003 85.7776 60.5106C85.9336 60.721 86.0843 60.935 86.2298 61.1527C86.3752 61.3704 86.5153 61.5916 86.65 61.8162C86.7846 62.0408 86.9136 62.2686 87.037 62.4995C87.1604 62.7304 87.2781 62.9642 87.3901 63.201C87.5021 63.4377 87.6082 63.677 87.7084 63.9189C87.8086 64.1608 87.9028 64.405 87.991 64.6516C88.0792 64.8982 88.1613 65.1467 88.2373 65.3972C88.3133 65.6478 88.3832 65.9001 88.4468 66.1541C88.5104 66.4081 88.5677 66.6636 88.6189 66.9204C88.6699 67.1772 88.7147 67.4351 88.7531 67.6941C88.7915 67.9531 88.8236 68.2129 88.8493 68.4735C88.8749 68.7341 88.8942 68.9952 88.907 69.2567C88.9198 69.5183 88.9263 69.78 88.9263 70.0418C88.9263 70.3037 88.9198 70.5654 88.907 70.8269C88.8942 71.0885 88.8749 71.3495 88.8493 71.6101C88.8236 71.8707 88.7915 72.1305 88.7531 72.3895C88.7147 72.6485 88.6699 72.9064 88.6189 73.1632C88.5677 73.4201 88.5104 73.6755 88.4468 73.9295C88.3832 74.1835 88.3133 74.4358 88.2373 74.6864C88.1613 74.937 88.0792 75.1855 87.991 75.432C87.9028 75.6786 87.8086 75.9229 87.7084 76.1647C87.6082 76.4067 87.5021 76.646 87.3901 76.8827C87.2781 77.1194 87.1604 77.3532 87.037 77.5841C86.9136 77.8151 86.7846 78.0428 86.65 78.2674C86.5153 78.492 86.3752 78.7132 86.2298 78.9309C86.0843 79.1487 85.9336 79.3627 85.7776 79.573C85.6216 79.7834 85.4605 79.9897 85.2945 80.1921C85.1283 80.3945 84.9573 80.5927 84.7815 80.7867C84.6056 80.9808 84.4251 81.1704 84.24 81.3555C84.0548 81.5407 83.8652 81.7212 83.6712 81.897C83.4772 82.0729 83.279 82.2439 83.0766 82.41C82.8742 82.5761 82.6678 82.7371 82.4575 82.8931C82.2471 83.0491 82.0331 83.1999 81.8154 83.3453C81.5976 83.4908 81.3765 83.6309 81.1519 83.7655C80.9273 83.9001 80.6995 84.0291 80.4686 84.1525C80.2376 84.276 80.0038 84.3937 79.7672 84.5056C79.5304 84.6176 79.2911 84.7237 79.0492 84.8239C78.8073 84.9241 78.5631 85.0183 78.3165 85.1065C78.0699 85.1947 77.8214 85.2768 77.5709 85.3528C77.3203 85.4289 77.068 85.4987 76.814 85.5623C76.56 85.6259 76.3045 85.6833 76.0477 85.7344C75.7909 85.7855 75.533 85.8302 75.274 85.8686C75.015 85.9071 74.7552 85.9392 74.4946 85.9648C74.234 85.9905 73.9729 86.0097 73.7114 86.0225C73.4498 86.0354 73.1881 86.0418 72.9263 86.0418C72.6644 86.0418 72.4027 86.0354 72.1412 86.0225C71.8796 86.0097 71.6186 85.9905 71.358 85.9648C71.0974 85.9392 70.8376 85.9071 70.5786 85.8686C70.3196 85.8302 70.0617 85.7855 69.8049 85.7344C69.548 85.6833 69.2926 85.6259 69.0386 85.5623C68.7846 85.4987 68.5323 85.4289 68.2817 85.3528C68.0311 85.2768 67.7826 85.1947 67.5361 85.1065C67.2895 85.0183 67.0452 84.9241 66.8033 84.8239C66.5614 84.7237 66.3221 84.6176 66.0854 84.5056C65.8487 84.3937 65.6149 84.276 65.3839 84.1525C65.153 84.0291 64.9252 83.9001 64.7006 83.7655C64.476 83.6309 64.2549 83.4908 64.0371 83.3453C63.8194 83.1999 63.6054 83.0491 63.3951 82.8931C63.1848 82.7371 62.9784 82.5761 62.776 82.41C62.5736 82.2439 62.3753 82.0729 62.1813 81.897C61.9873 81.7212 61.7977 81.5407 61.6126 81.3555C61.4274 81.1704 61.2469 80.9808 61.071 80.7867C60.8952 80.5927 60.7242 80.3945 60.5581 80.1921C60.392 79.9897 60.2309 79.7834 60.0749 79.573C59.919 79.3627 59.7682 79.1487 59.6228 78.9309C59.4773 78.7132 59.3372 78.492 59.2026 78.2674C59.068 78.0428 58.939 77.8151 58.8155 77.5841C58.6921 77.3532 58.5744 77.1194 58.4624 76.8827C58.3505 76.646 58.2444 76.4067 58.1442 76.1647C58.044 75.9229 57.9498 75.6786 57.8616 75.432C57.7733 75.1855 57.6912 74.937 57.6152 74.6864C57.5392 74.4358 57.4694 74.1835 57.4058 73.9295C57.3421 73.6755 57.2848 73.4201 57.2337 73.1632C57.1826 72.9064 57.1379 72.6485 57.0994 72.3895C57.061 72.1305 57.029 71.8707 57.0033 71.6101C56.9776 71.3495 56.9584 71.0885 56.9455 70.8269C56.9327 70.5654 56.9263 70.3037 56.9263 70.0418Z" fill="url(#paint2_linear_102_47)"/>
</g>
<g filter="url(#filter3_d_102_47)">
<path fill-rule="evenodd" clip-rule="evenodd" d="M37.2716 17.306C36.1124 15.2913 33.355 15.6387 32.2124 17.6629C27.2877 26.3872 22.3631 35.1115 17.4384 43.8359C16.3096 45.8358 17.9566 48.0348 20.253 48.0348C30.1997 48.0348 40.1465 48.0348 50.0932 48.0348C52.4006 48.0348 53.4845 45.486 52.3338 43.486C47.313 34.7593 42.2923 26.0326 37.2716 17.306Z" fill="url(#paint3_linear_102_47)"/>
</g>
<defs>
<filter id="filter0_d_102_47" x="10.9263" y="47.0418" width="48" height="48" filterUnits="userSpaceOnUse" color-interpolation-filters="sRGB">
<feFlood flood-opacity="0" result="BackgroundImageFix"/>
<feColorMatrix in="SourceAlpha" type="matrix" values="0 0 0 0 0 0 0 0 0 0 0 0 0 0 0 0 0 0 127 0" result="hardAlpha"/>
<feOffset dy="1"/>
<feGaussianBlur stdDeviation="4"/>
<feColorMatrix type="matrix" values="0 0 0 0 1 0 0 0 0 0.5125 0 0 0 0 0.71725 0 0 0 0.5 0"/>
<feBlend mode="normal" in2="BackgroundImageFix" result="effect1_dropShadow_102_47"/>
<feBlend mode="normal" in="SourceGraphic" in2="effect1_dropShadow_102_47" result="shape"/>
</filter>
<filter id="filter1_d_102_47" x="39.9263" y="1.04184" width="66" height="66" filterUnits="userSpaceOnUse" color-interpolation-filters="sRGB">
<feFlood flood-opacity="0" result="BackgroundImageFix"/>
<feColorMatrix in="SourceAlpha" type="matrix" values="0 0 0 0 0 0 0 0 0 0 0 0 0 0 0 0 0 0 127 0" result="hardAlpha"/>
<feMorphology radius="1" operator="dilate" in="SourceAlpha" result="effect1_dropShadow_102_47"/>
<feOffset dy="2"/>
<feGaussianBlur stdDeviation="8"/>
<feColorMatrix type="matrix" values="0 0 0 0 1 0 0 0 0 0.5125 0 0 0 0 0.71725 0 0 0 0.5 0"/>
<feBlend mode="normal" in2="BackgroundImageFix" result="effect1_dropShadow_102_47"/>
<feBlend mode="normal" in="SourceGraphic" in2="effect1_dropShadow_102_47" result="shape"/>
</filter>
<filter id="filter2_d_102_47" x="48.9263" y="47.0418" width="48" height="48" filterUnits="userSpaceOnUse" color-interpolation-filters="sRGB">
<feFlood flood-opacity="0" result="BackgroundImageFix"/>
<feColorMatrix in="SourceAlpha" type="matrix" values="0 0 0 0 0 0 0 0 0 0 0 0 0 0 0 0 0 0 127 0" result="hardAlpha"/>
<feOffset dy="1"/>
<feGaussianBlur stdDeviation="4"/>
<feColorMatrix type="matrix" values="0 0 0 0 1 0 0 0 0 0.5125 0 0 0 0 0.71725 0 0 0 0.5 0"/>
<feBlend mode="normal" in2="BackgroundImageFix" result="effect1_dropShadow_102_47"/>
<feBlend mode="normal" in="SourceGraphic" in2="effect1_dropShadow_102_47" result="shape"/>
</filter>
<filter id="filter3_d_102_47" x="0.0737305" y="0.958405" width="69.7234" height="66.0764" filterUnits="userSpaceOnUse" color-interpolation-filters="sRGB">
<feFlood flood-opacity="0" result="BackgroundImageFix"/>
<feColorMatrix in="SourceAlpha" type="matrix" values="0 0 0 0 0 0 0 0 0 0 0 0 0 0 0 0 0 0 127 0" result="hardAlpha"/>
<feMorphology radius="1" operator="dilate" in="SourceAlpha" result="effect1_dropShadow_102_47"/>
<feOffset dy="2"/>
<feGaussianBlur stdDeviation="8"/>
<feColorMatrix type="matrix" values="0 0 0 0 0.5125 0 0 0 0 0.777446 0 0 0 0 1 0 0 0 0.5 0"/>
<feBlend mode="normal" in2="BackgroundImageFix" result="effect1_dropShadow_102_47"/>
<feBlend mode="normal" in="SourceGraphic" in2="effect1_dropShadow_102_47" result="shape"/>
</filter>
<linearGradient id="paint0_linear_102_47" x1="38.1609" y1="53.5226" x2="35.908" y2="85.9218" gradientUnits="userSpaceOnUse">
<stop offset="0.01" stop-color="#FF98B8"/>
<stop offset="1" stop-color="#FF6385"/>
</linearGradient>
<linearGradient id="paint1_linear_102_47" x1="76.1609" y1="15.5226" x2="73.908" y2="47.9218" gradientUnits="userSpaceOnUse">
<stop offset="0.01" stop-color="#FF98B8"/>
<stop offset="1" stop-color="#FF6385"/>
</linearGradient>
<linearGradient id="paint2_linear_102_47" x1="76.1609" y1="53.5226" x2="73.908" y2="85.9218" gradientUnits="userSpaceOnUse">
<stop offset="0.01" stop-color="#FF98B8"/>
<stop offset="1" stop-color="#FF6385"/>
</linearGradient>
<linearGradient id="paint3_linear_102_47" x1="34.9354" y1="15.9584" x2="34.9354" y2="48.0348" gradientUnits="userSpaceOnUse">
<stop stop-color="#88D9FF"/>
<stop offset="1" stop-color="#3FA6FF"/>
</linearGradient>
</defs>
</svg>
