<svg width="109" height="106" viewBox="0 0 109 106" fill="none" xmlns="http://www.w3.org/2000/svg">
<g filter="url(#filter0_d_102_109)">
<path fill-rule="evenodd" clip-rule="evenodd" d="M50.2478 33.2688C49.0956 31.22 46.3044 31.7965 45.1689 33.8546C36.1417 50.2164 27.1145 66.5782 18.0873 82.94C16.9842 84.9394 18.733 87 21.0166 87C39.2468 87 57.477 87 75.7072 87C78.0015 87 78.9782 84.3598 77.8537 82.36C68.6517 65.9963 59.4497 49.6326 50.2478 33.2688Z" fill="url(#paint0_linear_102_109)"/>
</g>
<path fill-rule="evenodd" clip-rule="evenodd" d="M75.6871 50.2272C74.5345 48.1803 71.6924 48.5904 70.5565 50.6467C64.6276 61.3792 58.6986 72.1117 52.7696 82.8441C51.6651 84.8436 53.2594 86.9562 55.5437 86.9562C67.5187 86.9562 79.4937 86.9562 91.4688 86.9562C93.7638 86.9562 94.9468 84.4327 93.8208 82.4329C87.7762 71.6977 81.7317 60.9625 75.6871 50.2272Z" fill="url(#paint1_linear_102_109)"/>
<g filter="url(#filter1_d_102_109)">
<path d="M91.8473 27C91.8473 27.1964 91.8425 27.3927 91.8328 27.5888C91.8232 27.7849 91.8088 27.9807 91.7895 28.1762C91.7702 28.3717 91.7462 28.5665 91.7174 28.7608C91.6886 28.9551 91.655 29.1485 91.6167 29.3411C91.5784 29.5337 91.5354 29.7253 91.4877 29.9158C91.44 30.1063 91.3876 30.2955 91.3306 30.4834C91.2736 30.6713 91.212 30.8578 91.1458 31.0427C91.0797 31.2276 91.009 31.4107 90.9339 31.5922C90.8587 31.7737 90.7791 31.9532 90.6952 32.1307C90.6112 32.3082 90.5229 32.4836 90.4304 32.6568C90.3378 32.83 90.241 33.0008 90.14 33.1692C90.0391 33.3377 89.934 33.5035 89.8249 33.6668C89.7158 33.8301 89.6028 33.9907 89.4858 34.1484C89.3688 34.3061 89.248 34.4609 89.1234 34.6127C88.9988 34.7645 88.8706 34.9132 88.7387 35.0587C88.6068 35.2042 88.4715 35.3464 88.3326 35.4853C88.1937 35.6242 88.0515 35.7595 87.906 35.8914C87.7605 36.0233 87.6118 36.1515 87.46 36.2761C87.3082 36.4007 87.1534 36.5215 86.9957 36.6385C86.838 36.7555 86.6774 36.8685 86.5141 36.9776C86.3508 37.0867 86.185 37.1918 86.0165 37.2927C85.8481 37.3937 85.6773 37.4905 85.5041 37.5831C85.3309 37.6756 85.1555 37.7639 84.978 37.8479C84.8005 37.9318 84.621 38.0114 84.4395 38.0866C84.258 38.1617 84.0749 38.2324 83.89 38.2985C83.7051 38.3647 83.5186 38.4263 83.3307 38.4833C83.1428 38.5403 82.9536 38.5927 82.7631 38.6404C82.5726 38.6881 82.381 38.7311 82.1884 38.7694C81.9958 38.8077 81.8024 38.8413 81.6081 38.8701C81.4138 38.8989 81.219 38.9229 81.0235 38.9422C80.828 38.9615 80.6322 38.9759 80.4361 38.9855C80.24 38.9952 80.0437 39 79.8473 39C79.6509 39 79.4546 38.9952 79.2585 38.9855C79.0624 38.9759 78.8666 38.9615 78.6711 38.9422C78.4756 38.9229 78.2808 38.8989 78.0865 38.8701C77.8923 38.8413 77.6988 38.8077 77.5062 38.7694C77.3136 38.7311 77.122 38.6881 76.9315 38.6404C76.741 38.5927 76.5518 38.5403 76.3639 38.4833C76.1759 38.4263 75.9895 38.3647 75.8046 38.2985C75.6197 38.2324 75.4365 38.1617 75.2551 38.0866C75.0737 38.0114 74.8942 37.9318 74.7166 37.8479C74.5391 37.7639 74.3637 37.6756 74.1905 37.5831C74.0173 37.4905 73.8465 37.3937 73.6781 37.2927C73.5096 37.1918 73.3437 37.0867 73.1804 36.9776C73.0172 36.8685 72.8566 36.7555 72.6989 36.6385C72.5412 36.5215 72.3864 36.4007 72.2346 36.2761C72.0828 36.1515 71.9341 36.0233 71.7886 35.8914C71.6431 35.7595 71.5009 35.6242 71.362 35.4853C71.2231 35.3464 71.0878 35.2042 70.9559 35.0587C70.824 34.9132 70.6958 34.7645 70.5712 34.6127C70.4466 34.4609 70.3258 34.3061 70.2088 34.1484C70.0918 33.9907 69.9788 33.8301 69.8697 33.6668C69.7605 33.5035 69.6555 33.3377 69.5546 33.1692C69.4536 33.0008 69.3568 32.83 69.2642 32.6568C69.1717 32.4836 69.0834 32.3082 68.9994 32.1307C68.9155 31.9532 68.8359 31.7737 68.7607 31.5922C68.6856 31.4107 68.6149 31.2276 68.5488 31.0427C68.4826 30.8578 68.421 30.6713 68.364 30.4834C68.307 30.2955 68.2546 30.1063 68.2069 29.9158C68.1592 29.7253 68.1162 29.5337 68.0779 29.3411C68.0396 29.1485 68.006 28.9551 67.9772 28.7608C67.9484 28.5665 67.9243 28.3717 67.9051 28.1762C67.8858 27.9807 67.8714 27.7849 67.8617 27.5888C67.8521 27.3927 67.8473 27.1964 67.8473 27C67.8473 26.8036 67.8521 26.6073 67.8617 26.4112C67.8714 26.2151 67.8858 26.0193 67.9051 25.8238C67.9243 25.6283 67.9484 25.4335 67.9772 25.2392C68.006 25.045 68.0396 24.8515 68.0779 24.6589C68.1162 24.4663 68.1592 24.2747 68.2069 24.0842C68.2546 23.8937 68.307 23.7045 68.364 23.5166C68.421 23.3286 68.4826 23.1422 68.5488 22.9573C68.6149 22.7724 68.6856 22.5892 68.7607 22.4078C68.8359 22.2264 68.9155 22.0469 68.9994 21.8693C69.0834 21.6918 69.1717 21.5164 69.2642 21.3432C69.3568 21.17 69.4536 20.9992 69.5546 20.8308C69.6555 20.6623 69.7605 20.4964 69.8697 20.3332C69.9788 20.1699 70.0918 20.0094 70.2088 19.8516C70.3258 19.6939 70.4466 19.5391 70.5712 19.3873C70.6958 19.2355 70.824 19.0868 70.9559 18.9413C71.0878 18.7958 71.2231 18.6536 71.362 18.5147C71.5009 18.3759 71.6431 18.2405 71.7886 18.1086C71.9341 17.9767 72.0828 17.8485 72.2346 17.7239C72.3864 17.5993 72.5412 17.4785 72.6989 17.3615C72.8566 17.2445 73.0172 17.1315 73.1804 17.0224C73.3437 16.9133 73.5096 16.8082 73.6781 16.7073C73.8465 16.6063 74.0173 16.5095 74.1905 16.4169C74.3637 16.3244 74.5391 16.2361 74.7166 16.1521C74.8942 16.0682 75.0737 15.9886 75.2551 15.9134C75.4365 15.8383 75.6197 15.7676 75.8046 15.7015C75.9895 15.6353 76.1759 15.5737 76.3639 15.5167C76.5518 15.4597 76.741 15.4073 76.9315 15.3596C77.122 15.3119 77.3136 15.2689 77.5062 15.2306C77.6988 15.1923 77.8923 15.1587 78.0865 15.1299C78.2808 15.1011 78.4756 15.077 78.6711 15.0578C78.8666 15.0385 79.0624 15.0241 79.2585 15.0145C79.4546 15.0048 79.6509 15 79.8473 15C80.0437 15 80.24 15.0048 80.4361 15.0145C80.6322 15.0241 80.828 15.0385 81.0235 15.0578C81.219 15.077 81.4138 15.1011 81.6081 15.1299C81.8024 15.1587 81.9958 15.1923 82.1884 15.2306C82.381 15.2689 82.5726 15.3119 82.7631 15.3596C82.9536 15.4073 83.1428 15.4597 83.3307 15.5167C83.5186 15.5737 83.7051 15.6353 83.89 15.7015C84.0749 15.7676 84.258 15.8383 84.4395 15.9134C84.621 15.9886 84.8005 16.0682 84.978 16.1521C85.1555 16.2361 85.3309 16.3244 85.5041 16.4169C85.6773 16.5095 85.8481 16.6063 86.0165 16.7073C86.185 16.8082 86.3508 16.9133 86.5141 17.0224C86.6774 17.1315 86.838 17.2445 86.9957 17.3615C87.1534 17.4785 87.3082 17.5993 87.46 17.7239C87.6118 17.8485 87.7605 17.9767 87.906 18.1086C88.0515 18.2405 88.1937 18.3759 88.3326 18.5147C88.4715 18.6536 88.6068 18.7958 88.7387 18.9413C88.8706 19.0868 88.9988 19.2355 89.1234 19.3873C89.248 19.5391 89.3688 19.6939 89.4858 19.8516C89.6028 20.0094 89.7158 20.1699 89.8249 20.3332C89.934 20.4964 90.0391 20.6623 90.14 20.8308C90.241 20.9992 90.3378 21.17 90.4304 21.3432C90.5229 21.5164 90.6112 21.6918 90.6952 21.8693C90.7791 22.0469 90.8587 22.2264 90.9339 22.4078C91.009 22.5892 91.0797 22.7724 91.1458 22.9573C91.212 23.1422 91.2736 23.3286 91.3306 23.5166C91.3876 23.7045 91.44 23.8937 91.4877 24.0842C91.5354 24.2747 91.5784 24.4663 91.6167 24.6589C91.655 24.8515 91.6886 25.045 91.7174 25.2392C91.7462 25.4335 91.7702 25.6283 91.7895 25.8238C91.8088 26.0193 91.8232 26.2151 91.8328 26.4112C91.8425 26.6073 91.8473 26.8036 91.8473 27Z" fill="url(#paint2_linear_102_109)"/>
</g>
<defs>
<filter id="filter0_d_102_109" x="0.748169" y="16.9911" width="94.5731" height="89.0089" filterUnits="userSpaceOnUse" color-interpolation-filters="sRGB">
<feFlood flood-opacity="0" result="BackgroundImageFix"/>
<feColorMatrix in="SourceAlpha" type="matrix" values="0 0 0 0 0 0 0 0 0 0 0 0 0 0 0 0 0 0 127 0" result="hardAlpha"/>
<feMorphology radius="1" operator="dilate" in="SourceAlpha" result="effect1_dropShadow_102_109"/>
<feOffset dy="2"/>
<feGaussianBlur stdDeviation="8"/>
<feColorMatrix type="matrix" values="0 0 0 0 0.5125 0 0 0 0 0.777446 0 0 0 0 1 0 0 0 0.5 0"/>
<feBlend mode="normal" in2="BackgroundImageFix" result="effect1_dropShadow_102_109"/>
<feBlend mode="normal" in="SourceGraphic" in2="effect1_dropShadow_102_109" result="shape"/>
</filter>
<filter id="filter1_d_102_109" x="50.8473" y="0" width="58" height="58" filterUnits="userSpaceOnUse" color-interpolation-filters="sRGB">
<feFlood flood-opacity="0" result="BackgroundImageFix"/>
<feColorMatrix in="SourceAlpha" type="matrix" values="0 0 0 0 0 0 0 0 0 0 0 0 0 0 0 0 0 0 127 0" result="hardAlpha"/>
<feMorphology radius="1" operator="dilate" in="SourceAlpha" result="effect1_dropShadow_102_109"/>
<feOffset dy="2"/>
<feGaussianBlur stdDeviation="8"/>
<feColorMatrix type="matrix" values="0 0 0 0 1 0 0 0 0 0.8635 0 0 0 0 0.5125 0 0 0 0.5 0"/>
<feBlend mode="normal" in2="BackgroundImageFix" result="effect1_dropShadow_102_109"/>
<feBlend mode="normal" in="SourceGraphic" in2="effect1_dropShadow_102_109" result="shape"/>
</filter>
<linearGradient id="paint0_linear_102_109" x1="48.0347" y1="31.9911" x2="48.0347" y2="87" gradientUnits="userSpaceOnUse">
<stop stop-color="#88D9FF"/>
<stop offset="1" stop-color="#3FA6FF"/>
</linearGradient>
<linearGradient id="paint1_linear_102_109" x1="73.3314" y1="48.8826" x2="73.3314" y2="86.9562" gradientUnits="userSpaceOnUse">
<stop stop-color="#C1EBFF"/>
<stop offset="1" stop-color="#9DD7FF"/>
</linearGradient>
<linearGradient id="paint2_linear_102_109" x1="79.8473" y1="15" x2="79.8473" y2="39" gradientUnits="userSpaceOnUse">
<stop stop-color="#FFF38A"/>
<stop offset="1" stop-color="#FFCA42"/>
</linearGradient>
</defs>
</svg>
