<svg width="103" height="107" viewBox="0 0 103 107" fill="none" xmlns="http://www.w3.org/2000/svg">
<g filter="url(#filter0_d_102_124)">
<path d="M60.9701 62.9701C61.0403 62.8998 61.1123 62.8313 61.1859 62.7646C61.2596 62.6979 61.3348 62.633 61.4116 62.5699C61.4884 62.5069 61.5667 62.4458 61.6466 62.3866C61.7264 62.3274 61.8076 62.2702 61.8902 62.2149C61.9729 62.1597 62.0568 62.1066 62.142 62.0555C62.2273 62.0044 62.3137 61.9554 62.4014 61.9086C62.489 61.8617 62.5777 61.8171 62.6676 61.7746C62.7574 61.7321 62.8482 61.6918 62.94 61.6538C63.0319 61.6158 63.1245 61.58 63.2181 61.5466C63.3117 61.5131 63.406 61.4819 63.5011 61.4531C63.5962 61.4242 63.692 61.3977 63.7884 61.3736C63.8848 61.3494 63.9817 61.3277 64.0792 61.3083C64.1766 61.2889 64.2745 61.2719 64.3728 61.2573C64.4711 61.2427 64.5697 61.2306 64.6686 61.2208C64.7675 61.2111 64.8666 61.2038 64.9658 61.1989C65.0651 61.194 65.1644 61.1916 65.2638 61.1916C65.3632 61.1916 65.4625 61.194 65.5617 61.1989C65.661 61.2038 65.7601 61.2111 65.859 61.2208C65.9579 61.2306 66.0565 61.2427 66.1548 61.2573C66.2531 61.2719 66.351 61.2889 66.4484 61.3083C66.5459 61.3277 66.6428 61.3494 66.7392 61.3736C66.8356 61.3977 66.9314 61.4242 67.0265 61.4531C67.1216 61.4819 67.2159 61.5131 67.3095 61.5466C67.403 61.58 67.4957 61.6158 67.5875 61.6538C67.6794 61.6918 67.7702 61.7321 67.86 61.7746C67.9499 61.8171 68.0386 61.8617 68.1262 61.9086C68.2139 61.9554 68.3003 62.0044 68.3856 62.0555C68.4708 62.1066 68.5547 62.1597 68.6374 62.2149C68.72 62.2702 68.8012 62.3274 68.881 62.3866C68.9608 62.4458 69.0392 62.5069 69.116 62.5699C69.1928 62.633 69.268 62.6979 69.3417 62.7646C69.4153 62.8313 69.4873 62.8998 69.5575 62.9701L84.208 77.6206C84.2782 77.6908 84.3467 77.7627 84.4134 77.8364C84.4802 77.91 84.5451 77.9853 84.6082 78.0621C84.6712 78.1389 84.7323 78.2172 84.7915 78.2971C84.8507 78.3769 84.9079 78.4581 84.9631 78.5407C85.0183 78.6233 85.0715 78.7073 85.1225 78.7925C85.1736 78.8777 85.2226 78.9642 85.2695 79.0519C85.3163 79.1395 85.361 79.2282 85.4034 79.318C85.4459 79.4079 85.4862 79.4987 85.5242 79.5905C85.5622 79.6823 85.598 79.775 85.6315 79.8686C85.665 79.9621 85.6961 80.0565 85.725 80.1516C85.7539 80.2467 85.7803 80.3424 85.8045 80.4388C85.8286 80.5352 85.8504 80.6322 85.8698 80.7296C85.8892 80.8271 85.9062 80.925 85.9207 81.0233C85.9353 81.1216 85.9475 81.2202 85.9572 81.3191C85.967 81.418 85.9743 81.517 85.9791 81.6163C85.984 81.7156 85.9865 81.8149 85.9865 81.9143C85.9865 82.0136 85.984 82.113 85.9791 82.2122C85.9743 82.3115 85.967 82.4105 85.9572 82.5095C85.9475 82.6083 85.9353 82.7069 85.9207 82.8052C85.9061 82.9035 85.8892 83.0014 85.8698 83.0989C85.8504 83.1964 85.8286 83.2933 85.8045 83.3897C85.7803 83.4861 85.7538 83.5818 85.725 83.6769C85.6962 83.772 85.665 83.8664 85.6315 83.9599C85.598 84.0535 85.5622 84.1462 85.5242 84.238C85.4862 84.3298 85.4459 84.4206 85.4035 84.5105C85.361 84.6003 85.3163 84.6891 85.2694 84.7767C85.2226 84.8643 85.1736 84.9508 85.1225 85.036C85.0715 85.1213 85.0183 85.2052 84.9631 85.2878C84.9079 85.3704 84.8507 85.4517 84.7915 85.5315C84.7323 85.6113 84.6712 85.6896 84.6081 85.7665C84.5451 85.8433 84.4802 85.9185 84.4134 85.9921C84.3467 86.0658 84.2782 86.1377 84.2079 86.208C84.1377 86.2782 84.0657 86.3467 83.9921 86.4135C83.9185 86.4802 83.8432 86.5451 83.7664 86.6082C83.6896 86.6712 83.6113 86.7323 83.5315 86.7915C83.4516 86.8507 83.3704 86.9079 83.2877 86.9631C83.2052 87.0184 83.1212 87.0715 83.0359 87.1226C82.9507 87.1737 82.8643 87.2226 82.7766 87.2695C82.689 87.3163 82.6003 87.361 82.5105 87.4035C82.4206 87.446 82.3298 87.4862 82.238 87.5243C82.1461 87.5623 82.0534 87.598 81.9599 87.6315C81.8663 87.665 81.772 87.6962 81.6769 87.725C81.5818 87.7539 81.486 87.7804 81.3896 87.8045C81.2933 87.8287 81.1963 87.8505 81.0989 87.8699C81.0014 87.8892 80.9035 87.9062 80.8052 87.9207C80.7069 87.9353 80.6083 87.9475 80.5094 87.9573C80.4105 87.967 80.3114 87.9743 80.2122 87.9792C80.1129 87.9841 80.0136 87.9865 79.9142 87.9865C79.8148 87.9865 79.7155 87.9841 79.6162 87.9792C79.517 87.9743 79.4179 87.967 79.319 87.9573C79.2201 87.9475 79.1215 87.9353 79.0232 87.9208C78.925 87.9062 78.8271 87.8892 78.7296 87.8698C78.6321 87.8504 78.5352 87.8286 78.4387 87.8045C78.3424 87.7804 78.2467 87.7539 78.1515 87.725C78.0564 87.6962 77.9621 87.665 77.8685 87.6316C77.775 87.598 77.6823 87.5623 77.5904 87.5243C77.4987 87.4862 77.4078 87.446 77.318 87.4034C77.2281 87.361 77.1394 87.3164 77.0518 87.2695C76.9641 87.2227 76.8777 87.1737 76.7925 87.1226C76.7072 87.0715 76.6233 87.0183 76.5407 86.9631C76.458 86.9079 76.3768 86.8507 76.297 86.7916C76.2172 86.7323 76.1389 86.6712 76.062 86.6082C75.9852 86.5452 75.9099 86.4802 75.8363 86.4135C75.7627 86.3467 75.6907 86.2782 75.6205 86.208L60.9701 71.5576C60.8998 71.4873 60.8313 71.4153 60.7645 71.3417C60.6978 71.2681 60.6329 71.1929 60.5698 71.1161C60.5068 71.0392 60.4457 70.9609 60.3865 70.8811C60.3273 70.8013 60.2701 70.72 60.2149 70.6374C60.1597 70.5547 60.1066 70.4708 60.0555 70.3856C60.0044 70.3004 59.9554 70.2139 59.9086 70.1263C59.8617 70.0386 59.817 69.9499 59.7746 69.86C59.7321 69.7702 59.6918 69.6794 59.6538 69.5876C59.6157 69.4958 59.58 69.4031 59.5465 69.3095C59.513 69.216 59.4818 69.1216 59.453 69.0265C59.4242 68.9314 59.3977 68.8357 59.3735 68.7393C59.3494 68.6429 59.3276 68.546 59.3083 68.4484C59.2889 68.351 59.2719 68.2531 59.2573 68.1548C59.2427 68.0565 59.2305 67.9579 59.2208 67.859C59.211 67.7601 59.2037 67.6611 59.1989 67.5618C59.194 67.4625 59.1915 67.3632 59.1915 67.2639C59.1915 67.1645 59.194 67.0652 59.1989 66.9659C59.2037 66.8666 59.211 66.7676 59.2208 66.6687C59.2305 66.5698 59.2427 66.4712 59.2573 66.3729C59.2718 66.2745 59.2888 66.1767 59.3082 66.0792C59.3276 65.9817 59.3494 65.8848 59.3735 65.7884C59.3977 65.692 59.4242 65.5963 59.453 65.5012C59.4819 65.4061 59.513 65.3117 59.5465 65.2182C59.58 65.1246 59.6157 65.0319 59.6538 64.9401C59.6918 64.8483 59.7321 64.7575 59.7746 64.6676C59.817 64.5778 59.8617 64.489 59.9085 64.4014C59.9554 64.3138 60.0044 64.2273 60.0555 64.1421C60.1065 64.0568 60.1597 63.9729 60.2149 63.8903C60.2701 63.8076 60.3273 63.7264 60.3865 63.6466C60.4457 63.5668 60.5068 63.4885 60.5699 63.4116C60.6329 63.3348 60.6978 63.2596 60.7646 63.186C60.8313 63.1123 60.8998 63.0404 60.9701 62.9701Z" fill="url(#paint0_linear_102_124)"/>
</g>
<g filter="url(#filter1_d_102_124)">
<path d="M83 48C83 48.5401 82.9868 49.0798 82.9603 49.6192C82.9338 50.1587 82.894 50.6971 82.8411 51.2346C82.7882 51.7721 82.7221 52.3079 82.6428 52.8421C82.5635 53.3763 82.4712 53.9083 82.3659 54.438C82.2606 54.9677 82.1423 55.4944 82.011 56.0183C81.8798 56.5422 81.7358 57.0626 81.579 57.5794C81.4223 58.0962 81.2529 58.6089 81.0709 59.1174C80.889 59.6259 80.6947 60.1296 80.488 60.6286C80.2813 61.1275 80.0625 61.6211 79.8316 62.1093C79.6007 62.5975 79.358 63.0798 79.1034 63.5561C78.8488 64.0324 78.5827 64.5021 78.305 64.9654C78.0274 65.4286 77.7386 65.8847 77.4385 66.3338C77.1384 66.7829 76.8275 67.2243 76.5058 67.6581C76.1841 68.0919 75.852 68.5175 75.5093 68.935C75.1667 69.3525 74.8141 69.7613 74.4514 70.1614C74.0887 70.5616 73.7164 70.9526 73.3345 71.3345C72.9526 71.7164 72.5616 72.0887 72.1614 72.4514C71.7613 72.8141 71.3525 73.1667 70.935 73.5093C70.5175 73.852 70.0919 74.1841 69.6581 74.5058C69.2243 74.8275 68.7829 75.1384 68.3338 75.4385C67.8847 75.7386 67.4286 76.0274 66.9654 76.305C66.5021 76.5827 66.0324 76.8488 65.5561 77.1034C65.0798 77.358 64.5975 77.6007 64.1093 77.8316C63.6211 78.0625 63.1275 78.2813 62.6286 78.488C62.1296 78.6947 61.6259 78.889 61.1174 79.071C60.6089 79.2529 60.0962 79.4223 59.5794 79.579C59.0626 79.7358 58.5422 79.8798 58.0183 80.011C57.4944 80.1423 56.9677 80.2606 56.438 80.3659C55.9083 80.4712 55.3763 80.5635 54.8421 80.6428C54.3079 80.7221 53.7721 80.7882 53.2346 80.8411C52.6971 80.894 52.1587 80.9338 51.6192 80.9603C51.0798 80.9868 50.5401 81 50 81C49.4599 81 48.9202 80.9868 48.3808 80.9603C47.8413 80.9338 47.3029 80.894 46.7654 80.8411C46.2279 80.7882 45.6921 80.7221 45.1579 80.6428C44.6237 80.5635 44.0917 80.4712 43.562 80.3659C43.0323 80.2606 42.5056 80.1423 41.9817 80.011C41.4578 79.8798 40.9374 79.7358 40.4206 79.579C39.9038 79.4223 39.3911 79.2529 38.8826 79.0709C38.3741 78.889 37.8704 78.6947 37.3714 78.488C36.8725 78.2813 36.3789 78.0625 35.8907 77.8316C35.4025 77.6007 34.9202 77.358 34.4439 77.1034C33.9676 76.8488 33.4979 76.5827 33.0346 76.305C32.5714 76.0274 32.1153 75.7386 31.6662 75.4385C31.2171 75.1384 30.7757 74.8275 30.3419 74.5058C29.9081 74.1841 29.4825 73.852 29.065 73.5093C28.6475 73.1667 28.2387 72.8141 27.8386 72.4514C27.4384 72.0887 27.0474 71.7164 26.6655 71.3345C26.2836 70.9526 25.9113 70.5616 25.5486 70.1614C25.1859 69.7613 24.8333 69.3525 24.4907 68.935C24.148 68.5175 23.8159 68.0919 23.4942 67.6581C23.1724 67.2243 22.8615 66.7829 22.5615 66.3338C22.2615 65.8847 21.9726 65.4286 21.695 64.9654C21.4173 64.5021 21.1512 64.0324 20.8966 63.5561C20.642 63.0798 20.3993 62.5975 20.1683 62.1093C19.9374 61.6211 19.7187 61.1275 19.512 60.6286C19.3053 60.1296 19.111 59.6259 18.929 59.1174C18.7471 58.6089 18.5777 58.0962 18.421 57.5794C18.2642 57.0626 18.1202 56.5422 17.989 56.0183C17.8577 55.4944 17.7394 54.9677 17.6341 54.438C17.5287 53.9083 17.4364 53.3763 17.3572 52.8421C17.2779 52.3079 17.2118 51.7721 17.1589 51.2346C17.106 50.6971 17.0662 50.1587 17.0397 49.6192C17.0132 49.0798 17 48.5401 17 48C17 47.4599 17.0132 46.9202 17.0397 46.3808C17.0662 45.8413 17.106 45.3029 17.1589 44.7654C17.2118 44.2279 17.2779 43.6921 17.3572 43.1579C17.4364 42.6237 17.5287 42.0917 17.6341 41.562C17.7394 41.0323 17.8577 40.5056 17.989 39.9817C18.1202 39.4578 18.2642 38.9374 18.421 38.4206C18.5777 37.9038 18.7471 37.3911 18.929 36.8826C19.111 36.3741 19.3053 35.8704 19.512 35.3714C19.7187 34.8725 19.9374 34.3789 20.1683 33.8907C20.3993 33.4025 20.642 32.9202 20.8966 32.4439C21.1512 31.9676 21.4173 31.4979 21.695 31.0346C21.9726 30.5714 22.2615 30.1153 22.5615 29.6662C22.8615 29.2171 23.1724 28.7757 23.4942 28.3419C23.8159 27.9081 24.148 27.4825 24.4907 27.065C24.8333 26.6475 25.1859 26.2387 25.5486 25.8386C25.9113 25.4384 26.2836 25.0474 26.6655 24.6655C27.0474 24.2836 27.4384 23.9113 27.8386 23.5486C28.2387 23.1859 28.6475 22.8333 29.065 22.4907C29.4825 22.148 29.9081 21.8159 30.3419 21.4942C30.7757 21.1724 31.2171 20.8615 31.6662 20.5615C32.1153 20.2615 32.5714 19.9726 33.0346 19.695C33.4979 19.4173 33.9676 19.1512 34.4439 18.8966C34.9202 18.642 35.4025 18.3993 35.8907 18.1683C36.3789 17.9374 36.8725 17.7187 37.3714 17.512C37.8704 17.3053 38.3741 17.111 38.8826 16.929C39.3911 16.7471 39.9038 16.5777 40.4206 16.421C40.9374 16.2642 41.4578 16.1202 41.9817 15.989C42.5056 15.8577 43.0323 15.7394 43.562 15.6341C44.0917 15.5287 44.6237 15.4364 45.1579 15.3572C45.6921 15.2779 46.2279 15.2118 46.7654 15.1589C47.3029 15.106 47.8413 15.0662 48.3808 15.0397C48.9202 15.0132 49.4599 15 50 15C50.5401 15 51.0798 15.0132 51.6192 15.0397C52.1587 15.0662 52.6971 15.106 53.2346 15.1589C53.7721 15.2118 54.3079 15.2779 54.8421 15.3572C55.3763 15.4364 55.9083 15.5287 56.438 15.6341C56.9677 15.7394 57.4944 15.8577 58.0183 15.989C58.5422 16.1202 59.0626 16.2642 59.5794 16.421C60.0962 16.5777 60.6089 16.7471 61.1174 16.929C61.6259 17.111 62.1296 17.3053 62.6286 17.512C63.1275 17.7187 63.6211 17.9374 64.1093 18.1683C64.5975 18.3993 65.0798 18.642 65.5561 18.8966C66.0324 19.1512 66.5021 19.4173 66.9654 19.695C67.4286 19.9726 67.8847 20.2615 68.3338 20.5615C68.7829 20.8615 69.2243 21.1724 69.6581 21.4942C70.0919 21.8159 70.5175 22.148 70.935 22.4907C71.3525 22.8333 71.7613 23.1859 72.1614 23.5486C72.5616 23.9113 72.9526 24.2836 73.3345 24.6655C73.7164 25.0474 74.0887 25.4384 74.4514 25.8386C74.8141 26.2387 75.1667 26.6475 75.5093 27.065C75.852 27.4825 76.1841 27.9081 76.5058 28.3419C76.8275 28.7757 77.1384 29.2171 77.4385 29.6662C77.7386 30.1153 78.0274 30.5714 78.305 31.0346C78.5827 31.4979 78.8488 31.9676 79.1034 32.4439C79.358 32.9202 79.6007 33.4025 79.8316 33.8907C80.0625 34.3789 80.2813 34.8725 80.488 35.3714C80.6947 35.8704 80.889 36.3741 81.071 36.8826C81.2529 37.3911 81.4223 37.9038 81.579 38.4206C81.7358 38.9374 81.8798 39.4578 82.011 39.9817C82.1423 40.5056 82.2606 41.0323 82.3659 41.562C82.4712 42.0917 82.5635 42.6237 82.6428 43.1579C82.7221 43.6921 82.7882 44.2279 82.8411 44.7654C82.894 45.3029 82.9338 45.8413 82.9603 46.3808C82.9868 46.9202 83 47.4599 83 48Z" fill="url(#paint1_linear_102_124)"/>
</g>
<path d="M71 48C71 48.3437 70.9916 48.6871 70.9747 49.0304C70.9578 49.3737 70.9326 49.7163 70.8989 50.0584C70.8652 50.4004 70.8231 50.7414 70.7727 51.0813C70.7223 51.4213 70.6636 51.7598 70.5965 52.0969C70.5294 52.434 70.4541 52.7692 70.3706 53.1026C70.2871 53.436 70.1955 53.7671 70.0957 54.096C69.996 54.4249 69.8882 54.7511 69.7724 55.0747C69.6566 55.3983 69.533 55.7188 69.4015 56.0363C69.27 56.3538 69.1307 56.668 68.9838 56.9787C68.8369 57.2894 68.6824 57.5962 68.5203 57.8993C68.3583 58.2024 68.189 58.5014 68.0123 58.7962C67.8356 59.0909 67.6518 59.3812 67.4609 59.667C67.2699 59.9527 67.0721 60.2336 66.8674 60.5097C66.6627 60.7858 66.4513 61.0566 66.2332 61.3223C66.0152 61.588 65.7908 61.8481 65.56 62.1027C65.3292 62.3574 65.0923 62.6062 64.8492 62.8492C64.6062 63.0923 64.3574 63.3292 64.1027 63.56C63.8481 63.7908 63.588 64.0152 63.3223 64.2332C63.0566 64.4513 62.7858 64.6626 62.5097 64.8673C62.2336 65.072 61.9527 65.2699 61.667 65.4609C61.3812 65.6518 61.0909 65.8356 60.7962 66.0123C60.5014 66.189 60.2024 66.3583 59.8993 66.5203C59.5962 66.6824 59.2894 66.8369 58.9787 66.9838C58.668 67.1307 58.3538 67.27 58.0363 67.4015C57.7188 67.533 57.3983 67.6566 57.0747 67.7724C56.7511 67.8882 56.4249 67.996 56.096 68.0957C55.7671 68.1955 55.436 68.2872 55.1026 68.3707C54.7692 68.4542 54.434 68.5294 54.0969 68.5965C53.7598 68.6636 53.4213 68.7223 53.0813 68.7727C52.7414 68.8231 52.4004 68.8652 52.0584 68.8989C51.7163 68.9326 51.3737 68.9578 51.0304 68.9747C50.6871 68.9916 50.3437 69 50 69C49.6563 69 49.3129 68.9916 48.9696 68.9747C48.6263 68.9578 48.2837 68.9326 47.9416 68.8989C47.5996 68.8652 47.2586 68.8231 46.9187 68.7727C46.5787 68.7223 46.2402 68.6636 45.9031 68.5965C45.566 68.5294 45.2308 68.4541 44.8974 68.3706C44.564 68.2871 44.2329 68.1955 43.904 68.0957C43.5751 67.996 43.2489 67.8882 42.9253 67.7724C42.6017 67.6566 42.2811 67.533 41.9636 67.4015C41.6461 67.27 41.332 67.1307 41.0213 66.9838C40.7106 66.8369 40.4038 66.6824 40.1007 66.5203C39.7976 66.3583 39.4986 66.189 39.2038 66.0123C38.909 65.8356 38.6188 65.6518 38.333 65.4609C38.0473 65.2699 37.7664 65.0721 37.4903 64.8674C37.2143 64.6627 36.9434 64.4513 36.6777 64.2332C36.4121 64.0152 36.1519 63.7908 35.8973 63.56C35.6426 63.3292 35.3938 63.0923 35.1508 62.8492C34.9077 62.6062 34.6708 62.3574 34.44 62.1027C34.2092 61.8481 33.9848 61.588 33.7668 61.3223C33.5488 61.0566 33.3374 60.7858 33.1326 60.5097C32.9279 60.2336 32.7301 59.9527 32.5391 59.667C32.3482 59.3812 32.1644 59.0909 31.9877 58.7962C31.811 58.5014 31.6417 58.2024 31.4797 57.8993C31.3176 57.5962 31.1632 57.2894 31.0162 56.9787C30.8693 56.668 30.7301 56.3538 30.5985 56.0363C30.467 55.7188 30.3434 55.3983 30.2276 55.0747C30.1118 54.7511 30.004 54.4249 29.9043 54.096C29.8045 53.7671 29.7129 53.436 29.6293 53.1026C29.5458 52.7692 29.4706 52.434 29.4035 52.0969C29.3365 51.7598 29.2777 51.4213 29.2273 51.0813C29.1769 50.7414 29.1348 50.4004 29.1011 50.0584C29.0674 49.7163 29.0422 49.3737 29.0253 49.0304C29.0084 48.6871 29 48.3437 29 48C29 47.6563 29.0084 47.3129 29.0253 46.9696C29.0422 46.6263 29.0674 46.2837 29.1011 45.9416C29.1348 45.5996 29.1769 45.2586 29.2273 44.9187C29.2777 44.5787 29.3365 44.2402 29.4035 43.9031C29.4706 43.566 29.5458 43.2308 29.6293 42.8974C29.7129 42.564 29.8045 42.2329 29.9043 41.904C30.004 41.5751 30.1118 41.2489 30.2276 40.9253C30.3434 40.6017 30.467 40.2811 30.5985 39.9636C30.7301 39.6461 30.8693 39.332 31.0162 39.0213C31.1632 38.7106 31.3176 38.4038 31.4797 38.1007C31.6417 37.7976 31.811 37.4986 31.9877 37.2038C32.1644 36.909 32.3482 36.6188 32.5391 36.333C32.7301 36.0473 32.9279 35.7664 33.1326 35.4903C33.3374 35.2143 33.5488 34.9434 33.7668 34.6777C33.9848 34.4121 34.2092 34.1519 34.44 33.8973C34.6708 33.6426 34.9077 33.3938 35.1508 33.1508C35.3938 32.9077 35.6426 32.6708 35.8973 32.44C36.1519 32.2092 36.4121 31.9848 36.6777 31.7668C36.9434 31.5488 37.2143 31.3374 37.4903 31.1326C37.7664 30.9279 38.0473 30.7301 38.333 30.5391C38.6188 30.3482 38.909 30.1644 39.2038 29.9877C39.4986 29.811 39.7976 29.6417 40.1007 29.4797C40.4038 29.3176 40.7106 29.1632 41.0213 29.0162C41.332 28.8693 41.6461 28.7301 41.9636 28.5985C42.2811 28.467 42.6017 28.3434 42.9253 28.2276C43.2489 28.1118 43.5751 28.004 43.904 27.9043C44.2329 27.8045 44.564 27.7129 44.8974 27.6293C45.2308 27.5458 45.566 27.4706 45.9031 27.4035C46.2402 27.3365 46.5787 27.2777 46.9187 27.2273C47.2586 27.1769 47.5996 27.1348 47.9416 27.1011C48.2837 27.0674 48.6263 27.0422 48.9696 27.0253C49.3129 27.0084 49.6563 27 50 27C50.3437 27 50.6871 27.0084 51.0304 27.0253C51.3737 27.0422 51.7163 27.0674 52.0584 27.1011C52.4004 27.1348 52.7414 27.1769 53.0813 27.2273C53.4213 27.2777 53.7598 27.3365 54.0969 27.4035C54.434 27.4706 54.7692 27.5458 55.1026 27.6293C55.436 27.7129 55.7671 27.8045 56.096 27.9043C56.4249 28.004 56.7511 28.1118 57.0747 28.2276C57.3983 28.3434 57.7188 28.467 58.0363 28.5985C58.3538 28.7301 58.668 28.8693 58.9787 29.0162C59.2894 29.1632 59.5962 29.3176 59.8993 29.4797C60.2024 29.6417 60.5014 29.811 60.7962 29.9877C61.0909 30.1644 61.3812 30.3482 61.667 30.5391C61.9527 30.7301 62.2336 30.9279 62.5097 31.1326C62.7858 31.3374 63.0566 31.5488 63.3223 31.7668C63.588 31.9848 63.8481 32.2092 64.1027 32.44C64.3574 32.6708 64.6062 32.9077 64.8492 33.1508C65.0923 33.3938 65.3292 33.6426 65.56 33.8973C65.7908 34.1519 66.0152 34.4121 66.2332 34.6777C66.4513 34.9434 66.6626 35.2143 66.8673 35.4903C67.072 35.7664 67.2699 36.0473 67.4609 36.333C67.6518 36.6188 67.8356 36.909 68.0123 37.2038C68.189 37.4986 68.3583 37.7976 68.5203 38.1007C68.6824 38.4038 68.8369 38.7106 68.9838 39.0213C69.1307 39.332 69.27 39.6461 69.4015 39.9636C69.533 40.2811 69.6566 40.6017 69.7724 40.9253C69.8882 41.2489 69.996 41.5751 70.0957 41.904C70.1955 42.2329 70.2872 42.564 70.3707 42.8974C70.4542 43.2308 70.5294 43.566 70.5965 43.9031C70.6636 44.2402 70.7223 44.5787 70.7727 44.9187C70.8231 45.2586 70.8652 45.5996 70.8989 45.9416C70.9326 46.2837 70.9578 46.6263 70.9747 46.9696C70.9916 47.3129 71 47.6563 71 48Z" fill="white" fill-opacity="0.4"/>
<defs>
<filter id="filter0_d_102_124" x="42.1915" y="46.1916" width="60.7949" height="60.7949" filterUnits="userSpaceOnUse" color-interpolation-filters="sRGB">
<feFlood flood-opacity="0" result="BackgroundImageFix"/>
<feColorMatrix in="SourceAlpha" type="matrix" values="0 0 0 0 0 0 0 0 0 0 0 0 0 0 0 0 0 0 127 0" result="hardAlpha"/>
<feMorphology radius="1" operator="dilate" in="SourceAlpha" result="effect1_dropShadow_102_124"/>
<feOffset dy="2"/>
<feGaussianBlur stdDeviation="8"/>
<feColorMatrix type="matrix" values="0 0 0 0 1 0 0 0 0 0.8635 0 0 0 0 0.5125 0 0 0 0.5 0"/>
<feBlend mode="normal" in2="BackgroundImageFix" result="effect1_dropShadow_102_124"/>
<feBlend mode="normal" in="SourceGraphic" in2="effect1_dropShadow_102_124" result="shape"/>
</filter>
<filter id="filter1_d_102_124" x="0" y="0" width="100" height="100" filterUnits="userSpaceOnUse" color-interpolation-filters="sRGB">
<feFlood flood-opacity="0" result="BackgroundImageFix"/>
<feColorMatrix in="SourceAlpha" type="matrix" values="0 0 0 0 0 0 0 0 0 0 0 0 0 0 0 0 0 0 127 0" result="hardAlpha"/>
<feMorphology radius="1" operator="dilate" in="SourceAlpha" result="effect1_dropShadow_102_124"/>
<feOffset dy="2"/>
<feGaussianBlur stdDeviation="8"/>
<feColorMatrix type="matrix" values="0 0 0 0 0.5125 0 0 0 0 1 0 0 0 0 0.649 0 0 0 0.5 0"/>
<feBlend mode="normal" in2="BackgroundImageFix" result="effect1_dropShadow_102_124"/>
<feBlend mode="normal" in="SourceGraphic" in2="effect1_dropShadow_102_124" result="shape"/>
</filter>
<linearGradient id="paint0_linear_102_124" x1="72.589" y1="61.1916" x2="72.589" y2="87.9865" gradientUnits="userSpaceOnUse">
<stop stop-color="#FFF38A"/>
<stop offset="1" stop-color="#FFCA42"/>
</linearGradient>
<linearGradient id="paint1_linear_102_124" x1="16.3739" y1="14.3739" x2="83.626" y2="81.626" gradientUnits="userSpaceOnUse">
<stop stop-color="#95F8C4"/>
<stop offset="1" stop-color="#61F098"/>
</linearGradient>
</defs>
</svg>
